<svg xmlns="http://www.w3.org/2000/svg" width="32" height="32" viewBox="0 0 32 32" fill="none">
  <path d="M19.5026 5.38659L20.6371 3.33978C20.6516 3.31355 20.6608 3.28472 20.6642 3.25494C20.6675 3.22515 20.665 3.195 20.6567 3.16619C20.6484 3.13739 20.6346 3.11049 20.6159 3.08705C20.5972 3.06361 20.5741 3.04407 20.5479 3.02956C20.5216 3.01505 20.4928 3.00585 20.463 3.00248C20.4332 2.99911 20.4031 3.00164 20.3743 3.00993C20.3455 3.01821 20.3186 3.03209 20.2951 3.05077C20.2717 3.06945 20.2522 3.09256 20.2377 3.11879L19.0913 5.18687C18.1128 4.75776 17.0559 4.53621 15.9874 4.53621C14.919 4.53621 13.8621 4.75776 12.8835 5.18687L11.7372 3.11879C11.7079 3.0655 11.6587 3.02605 11.6003 3.00909C11.5419 2.99214 11.4791 2.99908 11.4258 3.02838C11.3726 3.05769 11.3331 3.10696 11.3161 3.16536C11.2992 3.22375 11.3061 3.28649 11.3354 3.33978L12.4699 5.38659C11.3908 5.91939 10.4791 6.73882 9.83463 7.75517C9.19013 8.77152 8.8377 9.9456 8.81592 11.1489H23.159C23.137 9.94535 22.7842 8.7711 22.1393 7.75473C21.4943 6.73835 20.5821 5.91906 19.5026 5.38659ZM12.6779 8.52417C12.5594 8.52417 12.4435 8.489 12.3449 8.42311C12.2464 8.35723 12.1696 8.26358 12.1243 8.15403C12.0789 8.04448 12.0671 7.92395 12.0904 7.80769C12.1136 7.69144 12.1708 7.58468 12.2547 7.50094C12.3386 7.41719 12.4455 7.36022 12.5618 7.33723C12.6781 7.31425 12.7986 7.32628 12.908 7.37181C13.0175 7.41734 13.111 7.49432 13.1767 7.59301C13.2424 7.69169 13.2773 7.80765 13.2771 7.9262C13.2768 8.0849 13.2135 8.237 13.1012 8.3491C12.9888 8.46121 12.8366 8.52417 12.6779 8.52417ZM19.2982 8.52417C19.1796 8.52417 19.0637 8.489 18.9652 8.42311C18.8666 8.35723 18.7898 8.26358 18.7445 8.15403C18.6992 8.04448 18.6874 7.92395 18.7106 7.80769C18.7338 7.69144 18.791 7.58468 18.8749 7.50094C18.9588 7.41719 19.0657 7.36022 19.182 7.33723C19.2983 7.31425 19.4188 7.32628 19.5283 7.37181C19.6377 7.41734 19.7312 7.49432 19.7969 7.59301C19.8626 7.69169 19.8975 7.80765 19.8973 7.9262C19.897 8.0849 19.8337 8.237 19.7214 8.3491C19.6091 8.46121 19.4569 8.52417 19.2982 8.52417ZM8.81355 22.1109C8.81324 22.3391 8.85797 22.5651 8.94518 22.7759C9.03238 22.9867 9.16035 23.1783 9.32174 23.3396C9.48313 23.5008 9.67477 23.6287 9.88567 23.7157C10.0966 23.8028 10.3226 23.8474 10.5507 23.8469H11.7006V27.3922C11.7006 27.8186 11.87 28.2276 12.1715 28.5291C12.473 28.8306 12.882 29 13.3084 29C13.7348 29 14.1437 28.8306 14.4453 28.5291C14.7468 28.2276 14.9162 27.8186 14.9162 27.3922V23.8469H17.0599V27.3922C17.0599 27.8185 17.2292 28.2273 17.5306 28.5287C17.832 28.8301 18.2408 28.9994 18.6671 28.9994C19.0934 28.9994 19.5021 28.8301 19.8036 28.5287C20.105 28.2273 20.2743 27.8185 20.2743 27.3922V23.8469H21.4253C21.6532 23.8471 21.8789 23.8023 22.0894 23.7152C22.3 23.6281 22.4913 23.5003 22.6524 23.3391C22.8135 23.178 22.9413 22.9867 23.0284 22.7762C23.1155 22.5656 23.1603 22.34 23.1602 22.1121V11.7161H8.81355V22.1109ZM6.6072 11.4396C6.39604 11.4396 6.18695 11.4812 5.99188 11.562C5.79681 11.6429 5.61958 11.7614 5.47032 11.9107C5.32106 12.0601 5.2027 12.2374 5.122 12.4326C5.0413 12.6277 4.99985 12.8368 5 13.048V19.7474C5 19.9584 5.04157 20.1674 5.12234 20.3624C5.20311 20.5574 5.3215 20.7346 5.47074 20.8838C5.61998 21.0331 5.79716 21.1515 5.99215 21.2322C6.18714 21.313 6.39614 21.3546 6.6072 21.3546C6.81826 21.3546 7.02725 21.313 7.22225 21.2322C7.41724 21.1515 7.59442 21.0331 7.74366 20.8838C7.8929 20.7346 8.01129 20.5574 8.09206 20.3624C8.17283 20.1674 8.2144 19.9584 8.2144 19.7474V13.048C8.2144 12.8369 8.17283 12.6279 8.09206 12.4329C8.01129 12.2379 7.8929 12.0607 7.74366 11.9115C7.59442 11.7623 7.41724 11.6439 7.22225 11.5631C7.02725 11.4823 6.81826 11.4408 6.6072 11.4408M25.3641 11.4408C25.153 11.4408 24.9439 11.4824 24.7488 11.5632C24.5538 11.6441 24.3765 11.7626 24.2273 11.9119C24.078 12.0613 23.9597 12.2386 23.879 12.4337C23.7983 12.6289 23.7568 12.838 23.757 13.0491V19.7486C23.757 19.9596 23.7985 20.1686 23.8793 20.3636C23.9601 20.5586 24.0784 20.7358 24.2277 20.885C24.3769 21.0343 24.5541 21.1527 24.7491 21.2334C24.9441 21.3142 25.1531 21.3558 25.3641 21.3558C25.5752 21.3558 25.7842 21.3142 25.9792 21.2334C26.1742 21.1527 26.3514 21.0343 26.5006 20.885C26.6499 20.7358 26.7682 20.5586 26.849 20.3636C26.9298 20.1686 26.9713 19.9596 26.9713 19.7486V13.048C26.9713 12.6217 26.802 12.2129 26.5006 11.9115C26.1992 11.6101 25.7904 11.4408 25.3641 11.4408Z" fill="white"/>
</svg>