<svg xmlns="http://www.w3.org/2000/svg" width="32" height="32" viewBox="0 0 32 32" fill="none">
  <path d="M20.733 3.51301C20.6778 3.45126 18.6872 3.53739 16.9549 5.4175C15.2227 7.29599 15.4892 9.45073 15.5282 9.50598C15.5672 9.56123 17.9982 9.64735 19.5501 7.46174C21.1019 5.27613 20.7883 3.57639 20.733 3.51301ZM26.1183 22.579C26.0403 22.423 22.3402 20.5738 22.6847 17.0183C23.0292 13.4628 25.4065 12.4862 25.4439 12.3806C25.4813 12.275 24.4738 11.0968 23.4062 10.5005C22.6221 10.0804 21.7547 9.83955 20.8663 9.79523C20.6908 9.79035 20.0814 9.64085 18.8286 9.98373C18.0031 10.2096 16.1424 10.9408 15.6306 10.9701C15.1171 10.9993 13.5896 10.1219 11.9467 9.88948C10.8953 9.68635 9.7806 10.1024 8.98273 10.4225C8.18649 10.741 6.672 11.6477 5.6125 14.0576C4.55301 16.4658 5.10713 20.2813 5.50363 21.4675C5.90012 22.6538 6.51925 24.594 7.57224 26.011C8.50824 27.61 9.74973 28.7199 10.2681 29.0969C10.7865 29.4739 12.249 29.7241 13.263 29.2058C14.0787 28.7053 15.5509 28.4176 16.1327 28.4388C16.7128 28.4599 17.8568 28.689 19.0284 29.3146C19.9563 29.6348 20.8338 29.5015 21.7129 29.144C22.592 28.7849 23.8644 27.4231 25.3496 24.6623C25.913 23.3785 26.1692 22.6841 26.1183 22.579Z" fill="white"/>
</svg>