<svg xmlns="http://www.w3.org/2000/svg" width="18" height="18" viewBox="0 0 18 18" fill="none">
  <path d="M9.00245 18.0001C6.61602 18.0001 4.32602 17.0521 2.63833 15.3645C0.950619 13.6768 0.00268555 11.3868 0.00268555 9.00035C0.00268555 6.61392 0.950713 4.32392 2.63833 2.63623C4.32604 0.948513 6.61602 0.000579834 9.00245 0.000579834C11.3889 0.000579834 13.6789 0.948607 15.3666 2.63623C17.0543 4.32394 18.0022 6.61392 18.0022 9.00035C17.9995 11.3868 17.0506 13.674 15.3638 15.3617C13.6761 17.0485 11.3889 17.9973 9.00245 18.0001ZM9.00245 1.16491C6.92442 1.16491 4.93183 1.99012 3.46261 3.46039C1.99235 4.92975 1.16714 6.92218 1.16714 9.00023C1.16714 11.0783 1.99235 13.0709 3.46261 14.5401C4.93197 16.0103 6.9244 16.8355 9.00245 16.8355C11.0805 16.8355 13.0731 16.0103 14.5423 14.5401C16.0126 13.0707 16.8378 11.0783 16.8378 9.00023C16.835 6.92311 16.0089 4.93147 14.5396 3.46318C13.0711 1.99383 11.0796 1.16764 9.00245 1.16491Z" fill="white" fill-opacity="0.8"/>
  <path d="M9.00176 18C6.58901 18 5.27515 13.3627 5.27515 9C5.27515 4.6373 6.57708 0 9.00176 0C11.4264 0 12.7284 4.6373 12.7284 9C12.7284 13.3627 11.4146 18 9.00176 18ZM9.00176 1.1648C7.93727 1.1648 6.43971 4.14632 6.43971 9.00023C6.43971 13.8541 7.92544 16.8357 9.00176 16.8357C10.0781 16.8357 11.5638 13.8541 11.5638 9.00023C11.5638 4.14632 10.0662 1.1648 9.00176 1.1648Z" fill="white" fill-opacity="0.8"/>
  <path d="M17.4212 9.58229H0.582283C0.260211 9.58229 0 9.32117 0 9.00001C0 8.67884 0.260211 8.41772 0.582283 8.41772H17.4221H17.4212C17.7433 8.41772 18.0035 8.67884 18.0035 9.00001C18.0035 9.32117 17.7433 9.58229 17.4212 9.58229Z" fill="white" fill-opacity="0.8"/>
</svg>